<?xml version="1.0" encoding="UTF-8"?>
<svg id="Layer_2" data-name="Layer 2" xmlns="http://www.w3.org/2000/svg" viewBox="0 0 151.48837 151.48837">
  <defs>
    <style>
      .cls-1 {
        fill: #fff;
      }

      .cls-2 {
        fill: #243e98;
      }
    </style>
  </defs>
  <circle class="cls-1" cx="75.74419" cy="75.74419" r="75.74419"/>
  <g id="Layer_1-2" data-name="Layer 1-2">
    <circle class="cls-2" cx="75.74419" cy="103.65423" r="3.61295"/>
    <path class="cls-2" d="m75.51838,19.14345l-49.02,28.29714v56.60074l49.02,28.30359,49.02-28.30359v-56.60074l-49.02-28.29714Zm.23226,91.33668c-6.23234,0-11.27757-4.82587-11.27757-10.78724,0-4.16134,2.471-7.76784,6.08395-9.56787v-19.25186h-8.19366v-6.17427h8.19366v-3.5936h-7.99365v-6.17427h7.99365v-3.52908h-7.99365v-6.00653h7.99365v-2.66455h10.40014v47.38771c3.61295,1.80002,6.08395,5.40007,6.08395,9.56787,0,5.95492-5.05168,10.78723-11.27756,10.78723l-.01291.00646Z"/>
  </g>
</svg>