<?xml version="1.0" encoding="utf-8"?>
<!-- Generator: Adobe Illustrator 27.5.0, SVG Export Plug-In . SVG Version: 6.00 Build 0)  -->
<svg version="1.1" id="Layer_2_00000079447644337689486390000004073348444811915669_"
	 xmlns="http://www.w3.org/2000/svg" xmlns:xlink="http://www.w3.org/1999/xlink" x="0px" y="0px" viewBox="0 0 447.2 96"
	 style="enable-background:new 0 0 447.2 96;" xml:space="preserve">
<g id="Layer_1-2" fill="#1b31a4">
	<path d="M65.7,35.2c-1.3-0.5-2.7-0.8-4.3-0.8H47.9v14.2h13.5c1.6,0,3-0.3,4.3-1c1.3-0.7,2.3-1.5,3.1-2.7c0.8-1.1,1.2-2.4,1.2-3.8
		s-0.4-2.6-1.2-3.6C68,36.5,67,35.7,65.7,35.2z" />
	<path d="M83.1,0H27.7L0,48l27.7,48h55.4l27.7-48L83.1,0z M81.7,51c-1.8,3-4.3,5.3-7.4,7.1c-3.1,1.8-6.6,2.6-10.6,2.6H48.1v18.7
		H34.2V22h30.4c3.8,0,7.2,0.8,10.1,2.5c3,1.6,5.3,3.9,7.1,6.7s2.6,6,2.6,9.6C84.4,44.6,83.5,48,81.7,51L81.7,51z" />
	<path d="M154.4,22h-12.5l-25.9,57.4l0,0h13.9l4.7-10.5h26.7l4.7,10.5h14.3L154.4,22z M139.2,58.4l4.8-10.8c0.5-1.2,1-2.4,1.5-3.5
		c0.5-1.1,1-2.3,1.4-3.5c0.3-0.9,0.7-1.7,1-2.6c0.3,0.8,0.6,1.7,0.9,2.5c0.4,1.2,0.9,2.4,1.4,3.5c0.5,1.2,1,2.3,1.5,3.5l4.9,10.9
		H139.2z" />
	<path d="M250.4,57.8c0.5-0.2,1.1-0.5,1.6-0.7c3.1-1.6,5.6-3.9,7.5-6.8c1.8-2.9,2.8-6.1,2.8-9.8c0-3.7-0.9-6.9-2.6-9.6
		c-1.7-2.8-4.1-4.9-7.3-6.4c-3.1-1.5-6.8-2.3-11-2.3h-29.9v57.4h13.3V59.5h11l13.4,19.9h16.1L250.4,57.8z M224.7,48.8V33.7h14.6
		c1.8,0,3.3,0.3,4.6,0.9c1.3,0.6,2.4,1.5,3.2,2.5c0.8,1.1,1.2,2.4,1.2,3.9c0,1.5-0.4,2.9-1.1,4.1c-0.7,1.2-1.7,2.1-3,2.8
		c-1.2,0.7-2.6,1-4.2,1H224.7z" />
	<polygon points="360.1,79.4 343.5,79.4 325.8,57.1 318.8,64.3 316,52.5 345.2,22 359.5,22 334.5,48 	"/>
	<path d="M312,73.4V22h-11.3v3.9h-7.3v6.5h7.3v3.8h-7.3V43h7.3v3.9h-7.6v6.7h7.6v20.2c-3.7,2-6.1,5.8-6.1,10.2
		c0,6.5,5.5,11.8,12.3,11.8s12.3-5.3,12.3-11.8C319.1,79.4,316.2,75.3,312,73.4z M306.8,92.3c-2.2,0-3.9-1.8-3.9-3.9
		c0-2.2,1.8-3.9,3.9-3.9s3.9,1.8,3.9,3.9C310.8,90.6,309,92.3,306.8,92.3z" />
	<polygon points="447.2,22 422.5,56 422.5,79.4 408.5,79.4 408.5,79.4 408.5,56.3 382.2,22 398.9,22 415.5,44.5 431.4,22 	"/>
</g>
</svg>
