<svg width="18" height="18" viewBox="0 0 18 18" fill="#A2ADB9" xmlns="http://www.w3.org/2000/svg">
<path d="M18 3.25C18 2.38805 17.6576 1.5614 17.0481 0.951903C16.4386 0.34241 15.612 0 14.75 0H3.25C2.38805 0 1.5614 0.34241 0.951903 0.951903C0.34241 1.5614 0 2.38805 0 3.25V14.75C0 15.612 0.34241 16.4386 0.951903 17.0481C1.5614 17.6576 2.38805 18 3.25 18H14.75C15.612 18 16.4386 17.6576 17.0481 17.0481C17.6576 16.4386 18 15.612 18 14.75V3.25ZM4.5 5.744C4.847 5.362 5.415 5 6.25 5C7.402 5 8.144 5.792 8.405 6.661C8.658 7.508 8.505 8.556 7.785 9.279C7.53528 9.51907 7.2704 9.74287 6.992 9.949L6.952 9.98C6.672 10.196 6.422 10.392 6.202 10.61C5.947 10.866 5.738 11.145 5.617 11.5H7.75C7.94891 11.5 8.13968 11.579 8.28033 11.7197C8.42098 11.8603 8.5 12.0511 8.5 12.25C8.5 12.4489 8.42098 12.6397 8.28033 12.7803C8.13968 12.921 7.94891 13 7.75 13H4.75C4.55109 13 4.36032 12.921 4.21967 12.7803C4.07902 12.6397 4 12.4489 4 12.25C4 11.003 4.524 10.167 5.144 9.549C5.44 9.253 5.762 9.004 6.034 8.793L6.037 8.791C6.323 8.57 6.545 8.398 6.722 8.221C6.994 7.947 7.089 7.496 6.968 7.091C6.853 6.71 6.598 6.5 6.25 6.5C5.897 6.5 5.715 6.637 5.61 6.753C5.54857 6.8208 5.49858 6.89814 5.462 6.982V6.985C5.40073 7.17436 5.26675 7.33164 5.08953 7.42222C4.91231 7.5128 4.70636 7.52927 4.517 7.468C4.32764 7.40674 4.17036 7.27275 4.07978 7.09553C3.9892 6.91831 3.97273 6.71236 4.034 6.523L4.069 6.427C4.17175 6.17617 4.31824 5.94508 4.5 5.744ZM10.25 5C10.4489 5 10.6397 5.07902 10.7803 5.21967C10.921 5.36032 11 5.55109 11 5.75V8.5H12.5V5.75C12.5 5.55109 12.579 5.36032 12.7197 5.21967C12.8603 5.07902 13.0511 5 13.25 5C13.4489 5 13.6397 5.07902 13.7803 5.21967C13.921 5.36032 14 5.55109 14 5.75V12.22C14 12.4189 13.921 12.6097 13.7803 12.7503C13.6397 12.891 13.4489 12.97 13.25 12.97C13.0511 12.97 12.8603 12.891 12.7197 12.7503C12.579 12.6097 12.5 12.4189 12.5 12.22V10H10.25C10.0511 10 9.86032 9.92098 9.71967 9.78033C9.57902 9.63968 9.5 9.44891 9.5 9.25V5.75C9.5 5.55109 9.57902 5.36032 9.71967 5.21967C9.86032 5.07902 10.0511 5 10.25 5Z" fill="#A2ADB9"/>
</svg>
