<?xml version="1.0" encoding="utf-8"?>
<!-- Generator: Adobe Illustrator 27.5.0, SVG Export Plug-In . SVG Version: 6.00 Build 0)  -->
<svg version="1.1" id="Layer_1" xmlns="http://www.w3.org/2000/svg" xmlns:xlink="http://www.w3.org/1999/xlink" x="0px" y="0px"
	 viewBox="0 0 48 48" style="enable-background:new 0 0 48 48;" xml:space="preserve">
<path d="M8.5,37.5c2.5-1.6,5-2.8,7.5-3.6s5.1-1.2,8-1.2s5.6,0.4,8,1.2c2.5,0.8,5,2,7.5,3.6c1.8-2.2,3-4.3,3.8-6.5s1.1-4.5,1.1-7
	c0-5.8-1.9-10.6-5.8-14.5S29.8,3.6,24,3.6S13.4,5.5,9.5,9.4S3.6,18.2,3.6,24c0,2.4,0.4,4.8,1.1,7S6.8,35.3,8.5,37.5z M24,25.8
	c-2.3,0-4.3-0.8-5.8-2.4c-1.6-1.6-2.4-3.5-2.4-5.8s0.8-4.3,2.4-5.8c1.6-1.6,3.5-2.4,5.8-2.4c2.3,0,4.3,0.8,5.8,2.4s2.4,3.5,2.4,5.8
	s-0.8,4.3-2.4,5.8C28.3,25,26.3,25.8,24,25.8z M24,48c-3.3,0-6.5-0.6-9.4-1.9c-2.9-1.3-5.5-3-7.6-5.2c-2.2-2.2-3.9-4.7-5.1-7.6
	C0.6,30.4,0,27.3,0,24s0.6-6.4,1.9-9.3c1.3-2.9,3-5.5,5.2-7.6s4.7-3.9,7.6-5.1C17.6,0.6,20.7,0,24,0s6.4,0.6,9.3,1.9
	c2.9,1.3,5.5,3,7.6,5.1c2.2,2.2,3.9,4.7,5.1,7.6c1.3,2.9,1.9,6,1.9,9.3s-0.6,6.4-1.9,9.3c-1.3,2.9-3,5.5-5.1,7.6
	c-2.2,2.2-4.7,3.9-7.6,5.2C30.4,47.4,27.3,48,24,48z"/>
</svg>
