<svg xmlns="http://www.w3.org/2000/svg" height="48" viewBox="0 96 960 960" width="48" fill="#243e98"><path d="M479.807 659Q462 659 449.5 646.307t-12.5-30.5Q437 598 449.693 585.5t30.5-12.5Q498 573 510.5 585.693t12.5 30.5Q523 634 510.307 646.5t-30.5 12.5Zm-160 0Q302 659 289.5 646.307t-12.5-30.5Q277 598 289.693 585.5t30.5-12.5Q338 573 350.5 585.693t12.5 30.5Q363 634 350.307 646.5t-30.5 12.5Zm320 0Q622 659 609.5 646.307t-12.5-30.5Q597 598 609.693 585.5t30.5-12.5Q658 573 670.5 585.693t12.5 30.5Q683 634 670.307 646.5t-30.5 12.5Zm-160 160Q462 819 449.5 806.307t-12.5-30.5Q437 758 449.693 745.5t30.5-12.5Q498 733 510.5 745.693t12.5 30.5Q523 794 510.307 806.5t-30.5 12.5Zm-160 0Q302 819 289.5 806.307t-12.5-30.5Q277 758 289.693 745.5t30.5-12.5Q338 733 350.5 745.693t12.5 30.5Q363 794 350.307 806.5t-30.5 12.5Zm320 0Q622 819 609.5 806.307t-12.5-30.5Q597 758 609.693 745.5t30.5-12.5Q658 733 670.5 745.693t12.5 30.5Q683 794 670.307 806.5t-30.5 12.5ZM177 991q-28.725 0-50.863-22.138Q104 946.725 104 918V292q0-28.725 22.137-50.862Q148.275 219 177 219h49v-58h78v58h352v-58h78v58h49q28.725 0 50.862 22.138Q856 263.275 856 292v626q0 28.725-22.138 50.862Q811.725 991 783 991H177Zm0-73h606V476H177v442Z"/></svg>