<svg width="12" height="14" viewBox="0 0 12 14" fill="none" xmlns="http://www.w3.org/2000/svg">
<path d="M6 8.33331C5.81111 8.33331 5.65267 8.26931 5.52467 8.14131C5.39667 8.01331 5.33289 7.85509 5.33333 7.66665C5.33333 7.47776 5.39733 7.31931 5.52533 7.19131C5.65333 7.06331 5.81156 6.99954 6 6.99998C6.18889 6.99998 6.34733 7.06398 6.47533 7.19198C6.60334 7.31998 6.66711 7.4782 6.66667 7.66665C6.66667 7.85554 6.60267 8.01398 6.47467 8.14198C6.34667 8.26998 6.18845 8.33376 6 8.33331ZM3.33333 8.33331C3.14445 8.33331 2.986 8.26931 2.858 8.14131C2.73 8.01331 2.66622 7.85509 2.66667 7.66665C2.66667 7.47776 2.73067 7.31931 2.85867 7.19131C2.98667 7.06331 3.14489 6.99954 3.33333 6.99998C3.52222 6.99998 3.68067 7.06398 3.80867 7.19198C3.93667 7.31998 4.00045 7.4782 4 7.66665C4 7.85554 3.936 8.01398 3.808 8.14198C3.68 8.26998 3.52178 8.33376 3.33333 8.33331ZM8.66667 8.33331C8.47778 8.33331 8.31933 8.26931 8.19133 8.14131C8.06333 8.01331 7.99956 7.85509 8 7.66665C8 7.47776 8.064 7.31931 8.192 7.19131C8.32 7.06331 8.47822 6.99954 8.66667 6.99998C8.85556 6.99998 9.014 7.06398 9.142 7.19198C9.27 7.31998 9.33378 7.4782 9.33333 7.66665C9.33333 7.85554 9.26933 8.01398 9.14133 8.14198C9.01333 8.26998 8.85511 8.33376 8.66667 8.33331ZM6 11C5.81111 11 5.65267 10.936 5.52467 10.808C5.39667 10.68 5.33289 10.5218 5.33333 10.3333C5.33333 10.1444 5.39733 9.98598 5.52533 9.85798C5.65333 9.72998 5.81156 9.6662 6 9.66665C6.18889 9.66665 6.34733 9.73065 6.47533 9.85865C6.60334 9.98665 6.66711 10.1449 6.66667 10.3333C6.66667 10.5222 6.60267 10.6806 6.47467 10.8086C6.34667 10.9366 6.18845 11.0004 6 11ZM3.33333 11C3.14445 11 2.986 10.936 2.858 10.808C2.73 10.68 2.66622 10.5218 2.66667 10.3333C2.66667 10.1444 2.73067 9.98598 2.85867 9.85798C2.98667 9.72998 3.14489 9.6662 3.33333 9.66665C3.52222 9.66665 3.68067 9.73065 3.80867 9.85865C3.93667 9.98665 4.00045 10.1449 4 10.3333C4 10.5222 3.936 10.6806 3.808 10.8086C3.68 10.9366 3.52178 11.0004 3.33333 11ZM8.66667 11C8.47778 11 8.31933 10.936 8.19133 10.808C8.06333 10.68 7.99956 10.5218 8 10.3333C8 10.1444 8.064 9.98598 8.192 9.85798C8.32 9.72998 8.47822 9.6662 8.66667 9.66665C8.85556 9.66665 9.014 9.73065 9.142 9.85865C9.27 9.98665 9.33378 10.1449 9.33333 10.3333C9.33333 10.5222 9.26933 10.6806 9.14133 10.8086C9.01333 10.9366 8.85511 11.0004 8.66667 11ZM1.33333 13.6666C0.966668 13.6666 0.652668 13.536 0.391334 13.2746C0.130001 13.0133 -0.000443313 12.6995 1.13186e-06 12.3333V2.99998C1.13186e-06 2.63331 0.130668 2.31931 0.392001 2.05798C0.653334 1.79665 0.967112 1.6662 1.33333 1.66665H2V0.333313H3.33333V1.66665H8.66667V0.333313H10V1.66665H10.6667C11.0333 1.66665 11.3473 1.79731 11.6087 2.05865C11.87 2.31998 12.0004 2.63376 12 2.99998V12.3333C12 12.7 11.8693 13.014 11.608 13.2753C11.3467 13.5366 11.0329 13.6671 10.6667 13.6666H1.33333ZM1.33333 12.3333H10.6667V5.66665H1.33333V12.3333Z" fill="#1B31A4"/>
</svg>
