<svg width="20" height="16" viewBox="0 0 20 16" fill="#A2ADB9" xmlns="http://www.w3.org/2000/svg">
<path d="M4.03 8.02864L6.03 11.4986L3.5 14.6786L0 8.61864L4.03 8.02864ZM15 13.9986V11.2886C15.88 10.8986 16.5 10.0286 16.5 8.99864C16.5 8.42864 16.3 7.89864 15.97 7.49864L17.94 6.34864C18.95 5.75864 19.3 4.46864 18.71 3.45864L17.33 1.05864C17.0486 0.573649 16.587 0.219518 16.0456 0.0734146C15.5043 -0.0726887 14.9272 0.00107819 14.44 0.278641L6.31 4.99864C5.36 5.52864 5.03 6.74864 5.58 7.70864L7.08 10.3086C7.63 11.2586 8.86 11.5886 9.81 11.0386L11.69 9.95864C11.94 10.5486 12.41 11.0286 13 11.2886V13.9986C13 15.0986 13.9 15.9986 15 15.9986H20V13.9986H15Z" fill="#A2ADB9"/>
</svg>
