<svg width="18" height="22" viewBox="0 0 18 22" fill="none" xmlns="http://www.w3.org/2000/svg">
<path d="M3 14V14.5C3 14.9167 2.854 15.271 2.562 15.563C2.27 15.855 1.916 16.0007 1.5 16C1.08334 16 0.729002 15.854 0.437002 15.562C0.145002 15.27 -0.000664389 14.916 2.2779e-06 14.5V7L2.1 1C2.2 0.7 2.379 0.458333 2.637 0.275C2.895 0.0916666 3.18267 0 3.5 0H14.5C14.8167 0 15.1043 0.0916666 15.363 0.275C15.6217 0.458333 15.8007 0.7 15.9 1L18 7V14.5C18 14.9167 17.8543 15.271 17.563 15.563C17.2717 15.855 16.9173 16.0007 16.5 16C16.0833 16 15.729 15.854 15.437 15.562C15.145 15.27 14.9993 14.916 15 14.5V14H3ZM2.8 5H15.2L14.15 2H3.85L2.8 5ZM4.5 11C4.91667 11 5.271 10.854 5.563 10.562C5.855 10.27 6.00067 9.916 6 9.5C6 9.08333 5.854 8.729 5.562 8.437C5.27 8.145 4.916 7.99933 4.5 8C4.08334 8 3.729 8.146 3.437 8.438C3.145 8.73 2.99934 9.084 3 9.5C3 9.91667 3.146 10.271 3.438 10.563C3.73 10.855 4.084 11.0007 4.5 11ZM13.5 11C13.9167 11 14.271 10.854 14.563 10.562C14.855 10.27 15.0007 9.916 15 9.5C15 9.08333 14.854 8.729 14.562 8.437C14.27 8.145 13.916 7.99933 13.5 8C13.0833 8 12.729 8.146 12.437 8.438C12.145 8.73 11.9993 9.084 12 9.5C12 9.91667 12.146 10.271 12.438 10.563C12.73 10.855 13.084 11.0007 13.5 11ZM10 22L4 19H8V17L14 20H10V22Z" fill="#A2ADB9"/>
</svg>
