<?xml version="1.0" encoding="utf-8"?>
<!-- Generator: Adobe Illustrator 27.5.0, SVG Export Plug-In . SVG Version: 6.00 Build 0)  -->
<svg version="1.1" id="Layer_1" xmlns="http://www.w3.org/2000/svg" xmlns:xlink="http://www.w3.org/1999/xlink" x="0px" y="0px"
	 viewBox="0 0 48 48" style="enable-background:new 0 0 48 48;" xml:space="preserve">
<path d="M24,26.9L9.5,41.4C9.1,41.8,8.6,42,8.1,42c-0.6,0-1-0.2-1.4-0.6C6.2,41,6,40.5,6,39.9s0.2-1,0.6-1.4L21.1,24L6.6,9.5
	C6.2,9.1,6,8.6,6,8.1s0.2-1,0.6-1.4C7,6.2,7.5,6,8.1,6c0.6,0,1,0.2,1.4,0.6L24,21.1L38.5,6.6C38.9,6.2,39.4,6,39.9,6
	c0.6,0,1,0.2,1.4,0.6C41.8,7,42,7.5,42,8.1s-0.2,1-0.6,1.4L26.9,24l14.5,14.5c0.4,0.4,0.6,0.9,0.6,1.4s-0.2,1-0.6,1.4
	C41,41.8,40.5,42,39.9,42c-0.6,0-1-0.2-1.4-0.6L24,26.9z"/>
</svg>
