<svg width="36" height="36" viewBox="0 0 36 36" fill="none" xmlns="http://www.w3.org/2000/svg">
<path d="M19.5 12V6.00001C19.5 5.57501 19.644 5.21851 19.932 4.93051C20.22 4.64251 20.576 4.49901 21 4.50001H30C30.425 4.50001 30.7815 4.64401 31.0695 4.93201C31.3575 5.22001 31.501 5.57601 31.5 6.00001V12C31.5 12.425 31.356 12.7815 31.068 13.0695C30.78 13.3575 30.424 13.501 30 13.5H21C20.575 13.5 20.2185 13.356 19.9305 13.068C19.6425 12.78 19.499 12.424 19.5 12ZM4.50001 18V6.00001C4.50001 5.57501 4.64401 5.21851 4.93201 4.93051C5.22001 4.64251 5.57601 4.49901 6.00001 4.50001H15C15.425 4.50001 15.7815 4.64401 16.0695 4.93201C16.3575 5.22001 16.501 5.57601 16.5 6.00001V18C16.5 18.425 16.356 18.7815 16.068 19.0695C15.78 19.3575 15.424 19.501 15 19.5H6.00001C5.57501 19.5 5.21851 19.356 4.93051 19.068C4.64251 18.78 4.49901 18.424 4.50001 18ZM19.5 30V18C19.5 17.575 19.644 17.2185 19.932 16.9305C20.22 16.6425 20.576 16.499 21 16.5H30C30.425 16.5 30.7815 16.644 31.0695 16.932C31.3575 17.22 31.501 17.576 31.5 18V30C31.5 30.425 31.356 30.7815 31.068 31.0695C30.78 31.3575 30.424 31.501 30 31.5H21C20.575 31.5 20.2185 31.356 19.9305 31.068C19.6425 30.78 19.499 30.424 19.5 30ZM4.50001 30V24C4.50001 23.575 4.64401 23.2185 4.93201 22.9305C5.22001 22.6425 5.57601 22.499 6.00001 22.5H15C15.425 22.5 15.7815 22.644 16.0695 22.932C16.3575 23.22 16.501 23.576 16.5 24V30C16.5 30.425 16.356 30.7815 16.068 31.0695C15.78 31.3575 15.424 31.501 15 31.5H6.00001C5.57501 31.5 5.21851 31.356 4.93051 31.068C4.64251 30.78 4.49901 30.424 4.50001 30Z" fill="#1B31A4"/>
</svg>
