<svg width="36" height="36" viewBox="0 0 36 36" fill="none" xmlns="http://www.w3.org/2000/svg">
<path d="M14.3999 17.9999C14.3999 17.2838 14.6844 16.5971 15.1907 16.0907C15.6971 15.5844 16.3838 15.2999 17.0999 15.2999C17.816 15.2999 18.5027 15.5844 19.0091 16.0907C19.5154 16.5971 19.7999 17.2838 19.7999 17.9999C19.7999 18.716 19.5154 19.4028 19.0091 19.9091C18.5027 20.4155 17.816 20.6999 17.0999 20.6999C16.3838 20.6999 15.6971 20.4155 15.1907 19.9091C14.6844 19.4028 14.3999 18.716 14.3999 17.9999Z" fill="#A2ADB9"/>
<path fill-rule="evenodd" clip-rule="evenodd" d="M8.0999 3.59998C7.38382 3.59998 6.69706 3.88444 6.19071 4.39079C5.68437 4.89714 5.3999 5.58389 5.3999 6.29998V29.7C5.3999 30.4161 5.68437 31.1028 6.19071 31.6092C6.69706 32.1155 7.38382 32.4 8.0999 32.4H27.8999C28.616 32.4 29.3027 32.1155 29.8091 31.6092C30.3154 31.1028 30.5999 30.4161 30.5999 29.7V13.7178C30.5993 13.0019 30.3144 12.3156 29.8079 11.8098L22.3919 4.39018C22.1408 4.13928 21.8428 3.94035 21.5148 3.80476C21.1868 3.66917 20.8352 3.59958 20.4803 3.59998H8.0999ZM17.0999 12.6C16.2698 12.6004 15.4509 12.7922 14.7069 13.1606C13.9629 13.5289 13.3139 14.0637 12.8102 14.7236C12.3066 15.3835 11.9618 16.1507 11.8028 16.9654C11.6437 17.7802 11.6747 18.6207 11.8932 19.4215C12.1117 20.2224 12.512 20.9621 13.0628 21.5831C13.6137 22.2042 14.3003 22.6899 15.0693 23.0025C15.8384 23.3151 16.6691 23.4462 17.4971 23.3856C18.325 23.3249 19.1278 23.0743 19.8431 22.653L21.9959 24.804C22.1195 24.9366 22.2685 25.043 22.4341 25.1168C22.5997 25.1906 22.7785 25.2302 22.9598 25.2334C23.141 25.2366 23.3211 25.2033 23.4892 25.1354C23.6573 25.0675 23.81 24.9664 23.9382 24.8382C24.0664 24.7101 24.1674 24.5574 24.2353 24.3893C24.3032 24.2212 24.3366 24.0411 24.3334 23.8598C24.3302 23.6786 24.2905 23.4998 24.2167 23.3342C24.1429 23.1686 24.0365 23.0196 23.9039 22.896L21.7529 20.7432C22.2367 19.9229 22.4949 18.9893 22.5014 18.0371C22.508 17.0848 22.2626 16.1478 21.7902 15.3209C21.3177 14.4941 20.635 13.8069 19.8113 13.3291C18.9876 12.8512 18.0522 12.5997 17.0999 12.6Z" fill="#A2ADB9"/>
</svg>
