<svg width="20" height="16" viewBox="0 0 20 16" fill="#A2ADB9" xmlns="http://www.w3.org/2000/svg">
<path d="M4 10H11C11.2833 10 11.521 9.904 11.713 9.712C11.905 9.52 12.0007 9.28267 12 9V4C12 3.71667 11.904 3.479 11.712 3.287C11.52 3.095 11.2827 2.99934 11 3H4C3.71667 3 3.479 3.096 3.287 3.288C3.095 3.48 2.99934 3.71734 3 4V9C3 9.28334 3.096 9.521 3.288 9.713C3.48 9.905 3.71734 10.0007 4 10ZM2 16C1.45 16 0.979002 15.804 0.587002 15.412C0.195002 15.02 -0.000664969 14.5493 1.69779e-06 14V2C1.69779e-06 1.45 0.196002 0.979002 0.588002 0.587002C0.980002 0.195002 1.45067 -0.000664969 2 1.69779e-06H18C18.55 1.69779e-06 19.021 0.196001 19.413 0.588001C19.805 0.980001 20.0007 1.45067 20 2V14C20 14.55 19.804 15.021 19.412 15.413C19.02 15.805 18.5493 16.0007 18 16H2Z" fill="#A2ADB9"/>
</svg>
