<svg width="24" height="24" viewBox="0 0 24 24" fill="none" xmlns="http://www.w3.org/2000/svg">
<path d="M10.9998 20C10.7164 20 10.4788 19.904 10.2868 19.712C10.0948 19.52 9.9991 19.2827 9.99977 19V13L4.19977 5.6C3.94977 5.26667 3.9121 4.91667 4.08677 4.55C4.26143 4.18333 4.56577 4 4.99977 4H18.9998C19.4331 4 19.7374 4.18333 19.9128 4.55C20.0881 4.91667 20.0504 5.26667 19.7998 5.6L13.9998 13V19C13.9998 19.2833 13.9038 19.521 13.7118 19.713C13.5198 19.905 13.2824 20.0007 12.9998 20H10.9998ZM11.9998 12.3L16.9498 6H7.04977L11.9998 12.3Z" fill="#1B31A4"/>
</svg>
