<svg width="50" height="50" viewBox="0 0 50 50" fill="none" xmlns="http://www.w3.org/2000/svg">
<g clip-path="url(#clip0_88_303)">
<path d="M3.125 6.25C3.125 4.5924 3.78348 3.00269 4.95558 1.83058C6.12769 0.65848 7.7174 0 9.375 0L28.125 0C29.7826 0 31.3723 0.65848 32.5444 1.83058C33.7165 3.00269 34.375 4.5924 34.375 6.25V31.25C36.0326 31.25 37.6223 31.9085 38.7944 33.0806C39.9665 34.2527 40.625 35.8424 40.625 37.5V39.0625C40.625 39.4769 40.7896 39.8743 41.0826 40.1674C41.3757 40.4604 41.7731 40.625 42.1875 40.625C42.6019 40.625 42.9993 40.4604 43.2924 40.1674C43.5854 39.8743 43.75 39.4769 43.75 39.0625V25H42.1875C41.7731 25 41.3757 24.8354 41.0826 24.5424C40.7896 24.2493 40.625 23.8519 40.625 23.4375V13.6719C40.625 13.2575 40.7896 12.86 41.0826 12.567C41.3757 12.274 41.7731 12.1094 42.1875 12.1094H46.8594C46.825 10.6219 46.6937 9.31563 46.2312 8.29063C45.9837 7.69464 45.5523 7.19322 45 6.85937C44.425 6.51562 43.55 6.25 42.1875 6.25C41.7731 6.25 41.3757 6.08538 41.0826 5.79235C40.7896 5.49933 40.625 5.1019 40.625 4.6875C40.625 4.2731 40.7896 3.87567 41.0826 3.58265C41.3757 3.28962 41.7731 3.125 42.1875 3.125C43.95 3.125 45.4187 3.46875 46.6 4.175C47.7969 4.8875 48.5813 5.89688 49.0813 7.00938C50.0031 9.05625 50 11.5875 50 13.5125V23.4375C50 23.8519 49.8354 24.2493 49.5424 24.5424C49.2493 24.8354 48.8519 25 48.4375 25H46.875V39.0625C46.875 40.3057 46.3811 41.498 45.5021 42.3771C44.623 43.2561 43.4307 43.75 42.1875 43.75C40.9443 43.75 39.752 43.2561 38.8729 42.3771C37.9939 41.498 37.5 40.3057 37.5 39.0625V37.5C37.5 36.6712 37.1708 35.8763 36.5847 35.2903C35.9987 34.7042 35.2038 34.375 34.375 34.375V46.875H35.9375C36.3519 46.875 36.7493 47.0396 37.0424 47.3326C37.3354 47.6257 37.5 48.0231 37.5 48.4375C37.5 48.8519 37.3354 49.2493 37.0424 49.5424C36.7493 49.8354 36.3519 50 35.9375 50H1.5625C1.1481 50 0.750671 49.8354 0.457646 49.5424C0.16462 49.2493 0 48.8519 0 48.4375C0 48.0231 0.16462 47.6257 0.457646 47.3326C0.750671 47.0396 1.1481 46.875 1.5625 46.875H3.125V6.25ZM10.9375 6.25C10.5231 6.25 10.1257 6.41462 9.83265 6.70765C9.53962 7.00067 9.375 7.3981 9.375 7.8125V23.4375C9.375 23.8519 9.53962 24.2493 9.83265 24.5424C10.1257 24.8354 10.5231 25 10.9375 25H26.5625C26.9769 25 27.3743 24.8354 27.6674 24.5424C27.9604 24.2493 28.125 23.8519 28.125 23.4375V7.8125C28.125 7.3981 27.9604 7.00067 27.6674 6.70765C27.3743 6.41462 26.9769 6.25 26.5625 6.25H10.9375Z" fill="#fafbfb"/>
</g>
<defs>
<clipPath id="clip0_88_303">
<rect width="50" height="50" fill="#fafbfb"/>
</clipPath>
</defs>
</svg>
