<svg xmlns="http://www.w3.org/2000/svg" height="48" viewBox="0 96 960 960" width="48" fill="#243e98"><path d="M483.93 820q18.07 0 30.57-12.43 12.5-12.429 12.5-30.5 0-18.07-12.43-30.57-12.429-12.5-30.5-12.5-18.07 0-30.57 12.43-12.5 12.429-12.5 30.5 0 18.07 12.43 30.57 12.429 12.5 30.5 12.5ZM443 667h71q0-28.324 6-51.162Q526 593 563 562q31-25 44.5-50.919 13.5-25.919 13.5-57.987 0-56.51-36.848-89.302Q547.304 331 486.469 331 432 331 392.5 357.5 353 384 336 431l63 24q9-27 30.5-44t53.5-17q32 0 53 17.5t21 45.5q0 22-13.714 41.5Q529.571 518 505 539q-33 28-47.5 54T443 667Zm36.542 325q-85.182 0-161.022-33.02-75.84-33.02-132.16-89.34-56.32-56.32-89.34-132.291T64 576q0-86.272 33.079-162.149 33.079-75.878 89.686-132.47 56.606-56.592 132.216-88.986Q394.59 160 479.557 160q86.329 0 162.512 32.395 76.183 32.394 132.557 89Q831 338 863.5 414.042q32.5 76.041 32.5 162.5 0 85.458-32.395 160.797-32.394 75.338-88.986 131.921-56.592 56.582-132.616 89.661Q565.979 992 479.542 992Z"/></svg>