<svg width="18" height="24" viewBox="0 0 18 24" fill="#A2ADB9" xmlns="http://www.w3.org/2000/svg">
<path d="M17.0484 11.7619L6.54838 23.0119C6.43711 23.1306 6.29023 23.21 6.12992 23.2379C5.9696 23.2659 5.80455 23.2409 5.65966 23.1668C5.51476 23.0927 5.3979 22.9735 5.3267 22.8272C5.2555 22.6809 5.23382 22.5154 5.26494 22.3556L6.63932 15.4809L1.23651 13.4522C1.12047 13.4088 1.017 13.3373 0.935327 13.2442C0.853655 13.151 0.796331 13.0391 0.768474 12.9184C0.740617 12.7977 0.743097 12.6719 0.77569 12.5524C0.808283 12.4329 0.869975 12.3233 0.955255 12.2334L11.4553 0.983442C11.5665 0.864694 11.7134 0.785359 11.8737 0.757408C12.034 0.729457 12.1991 0.754407 12.344 0.828494C12.4889 0.90258 12.6057 1.02178 12.6769 1.16811C12.7481 1.31444 12.7698 1.47996 12.7387 1.63969L11.3606 8.52188L16.7634 10.5478C16.8786 10.5915 16.9812 10.6629 17.0622 10.7557C17.1433 10.8485 17.2002 10.9598 17.228 11.0798C17.2558 11.1998 17.2536 11.3248 17.2216 11.4438C17.1897 11.5627 17.1289 11.672 17.0446 11.7619H17.0484Z" fill="#A2ADB9"/>
</svg>
