<svg width="20" height="20" viewBox="0 0 20 20" fill="#A2ADB9" xmlns="http://www.w3.org/2000/svg">
<path d="M11.1999 1.59999C11.1999 1.28173 11.0735 0.976509 10.8484 0.751466C10.6234 0.526422 10.3182 0.399994 9.9999 0.399994C9.68164 0.399994 9.37642 0.526422 9.15137 0.751466C8.92633 0.976509 8.7999 1.28173 8.7999 1.59999V2.79999C8.7999 3.11825 8.92633 3.42348 9.15137 3.64852C9.37642 3.87357 9.68164 3.99999 9.9999 3.99999C10.3182 3.99999 10.6234 3.87357 10.8484 3.64852C11.0735 3.42348 11.1999 3.11825 11.1999 2.79999V1.59999ZM16.7883 4.90839C17.0069 4.68207 17.1278 4.37895 17.1251 4.06431C17.1224 3.74968 16.9962 3.4487 16.7737 3.22621C16.5512 3.00372 16.2502 2.87752 15.9356 2.87479C15.6209 2.87205 15.3178 2.993 15.0915 3.21159L14.2431 4.05999C14.0245 4.28632 13.9036 4.58944 13.9063 4.90408C13.909 5.21871 14.0352 5.51969 14.2577 5.74218C14.4802 5.96467 14.7812 6.09087 15.0958 6.0936C15.4105 6.09634 15.7136 5.97538 15.9399 5.75679L16.7883 4.90839ZM19.5999 9.99999C19.5999 10.3183 19.4735 10.6235 19.2484 10.8485C19.0234 11.0736 18.7182 11.2 18.3999 11.2H17.1999C16.8816 11.2 16.5764 11.0736 16.3514 10.8485C16.1263 10.6235 15.9999 10.3183 15.9999 9.99999C15.9999 9.68173 16.1263 9.37651 16.3514 9.15147C16.5764 8.92642 16.8816 8.79999 17.1999 8.79999H18.3999C18.7182 8.79999 19.0234 8.92642 19.2484 9.15147C19.4735 9.37651 19.5999 9.68173 19.5999 9.99999ZM4.0599 5.75679C4.1706 5.87141 4.30301 5.96283 4.44942 6.02572C4.59582 6.08861 4.75329 6.12171 4.91262 6.12309C5.07196 6.12448 5.22997 6.09412 5.37745 6.03378C5.52492 5.97344 5.65891 5.88434 5.77158 5.77167C5.88425 5.659 5.97335 5.52501 6.03369 5.37754C6.09403 5.23006 6.12439 5.07205 6.123 4.91271C6.12162 4.75338 6.08852 4.59591 6.02562 4.44951C5.96273 4.3031 5.87132 4.17069 5.7567 4.05999L4.9083 3.21159C4.68198 2.993 4.37886 2.87205 4.06422 2.87479C3.74959 2.87752 3.44861 3.00372 3.22612 3.22621C3.00363 3.4487 2.87743 3.74968 2.87469 4.06431C2.87196 4.37895 2.99291 4.68207 3.2115 4.90839L4.0599 5.75679ZM3.9999 9.99999C3.9999 10.3183 3.87347 10.6235 3.64843 10.8485C3.42339 11.0736 3.11816 11.2 2.7999 11.2H1.5999C1.28164 11.2 0.976418 11.0736 0.751374 10.8485C0.526331 10.6235 0.399902 10.3183 0.399902 9.99999C0.399902 9.68173 0.526331 9.37651 0.751374 9.15147C0.976418 8.92642 1.28164 8.79999 1.5999 8.79999H2.7999C3.11816 8.79999 3.42339 8.92642 3.64843 9.15147C3.87347 9.37651 3.9999 9.68173 3.9999 9.99999ZM7.5999 17.2V16H12.3999V17.2C12.3999 17.8365 12.147 18.447 11.697 18.8971C11.2469 19.3471 10.6364 19.6 9.9999 19.6C9.36338 19.6 8.75293 19.3471 8.30285 18.8971C7.85276 18.447 7.5999 17.8365 7.5999 17.2ZM12.3999 14.8C12.4179 14.392 12.6495 14.0248 12.9723 13.7692C13.7555 13.1515 14.3268 12.3052 14.6069 11.3478C14.8869 10.3904 14.8617 9.36958 14.5348 8.42719C14.2079 7.48479 13.5955 6.66765 12.7828 6.08933C11.9701 5.51102 10.9974 5.20026 9.9999 5.20026C9.00242 5.20026 8.02971 5.51102 7.21699 6.08933C6.40426 6.66765 5.79189 7.48479 5.46499 8.42719C5.13809 9.36958 5.1129 10.3904 5.39293 11.3478C5.67296 12.3052 6.24428 13.1515 7.0275 13.7692C7.3515 14.0248 7.5819 14.392 7.5987 14.8H12.4011H12.3999Z" fill="#A2ADB9"/>
</svg>
