<?xml version="1.0" encoding="utf-8"?>
<!-- Generator: Adobe Illustrator 27.5.0, SVG Export Plug-In . SVG Version: 6.00 Build 0)  -->
<svg version="1.1" id="Layer_1" xmlns="http://www.w3.org/2000/svg" xmlns:xlink="http://www.w3.org/1999/xlink" x="0px" y="0px"
	 viewBox="0 0 48 48" style="enable-background:new 0 0 48 48;" xml:space="preserve">
<path d="M2,40c-0.6,0-1-0.2-1.4-0.6C0.2,39,0,38.6,0,38c0-0.6,0.2-1,0.6-1.4C1,36.2,1.4,36,2,36h44c0.6,0,1,0.2,1.4,0.6
	C47.8,37,48,37.4,48,38c0,0.6-0.2,1-0.6,1.4C47,39.8,46.6,40,46,40H2z M2,26c-0.6,0-1-0.2-1.4-0.6C0.2,25,0,24.6,0,24
	c0-0.6,0.2-1,0.6-1.4S1.4,22,2,22h44c0.6,0,1,0.2,1.4,0.6C47.8,23,48,23.4,48,24c0,0.6-0.2,1-0.6,1.4C47,25.8,46.6,26,46,26H2z
	 M2,12c-0.6,0-1-0.2-1.4-0.6C0.2,11,0,10.6,0,10c0-0.6,0.2-1,0.6-1.4S1.4,8,2,8h44c0.6,0,1,0.2,1.4,0.6C47.8,9,48,9.4,48,10
	c0,0.6-0.2,1-0.6,1.4C47,11.8,46.6,12,46,12H2z"/>
</svg>
