<?xml version="1.0" encoding="utf-8"?>
<!-- Generator: Adobe Illustrator 27.5.0, SVG Export Plug-In . SVG Version: 6.00 Build 0)  -->
<svg version="1.1" id="Layer_1" xmlns="http://www.w3.org/2000/svg" xmlns:xlink="http://www.w3.org/1999/xlink" x="0px" y="0px"
	 viewBox="0 0 70 71" style="enable-background:new 0 0 70 71;" xml:space="preserve">
<style type="text/css">
	.st0{fill:#fafbfb;}
</style>
<path class="st0" d="M36.7,50.9c0.8,0.9,0.2,2.3-0.7,2.8c-0.8,0.4-2,0.1-2.6-0.6c-0.5-0.6-0.5-1.7,0.1-2.5c0.4-0.6,1-0.7,1.6-0.7
	c0.3,0,0.5,0,0.8,0.1c0.3,0,0.6,0.1,0.6,0.5C36.5,50.6,36.6,50.7,36.7,50.9z"/>
<path class="st0" d="M35,0.2L4.8,17.7v34.9L35,70l30.2-17.5V17.7L35,0.2z M42.6,49.2c0,0.8-0.1,1.5-0.5,2.2c-0.3,0.5-0.4,1-0.6,1.5
	c-0.1,0.2-0.2,0.4-0.4,0.5c-0.3,0.4-0.7,0.7-1,1.1c-0.3,0.3-0.6,0.6-1,0.7c-1,0.5-2,1.1-3.2,1.1c-1.1,0.1-2.2,0.1-3.2-0.4
	c-0.7-0.3-1.4-0.6-2.1-0.9c-0.4-0.2-0.8-0.6-1.2-0.9c-0.6-0.7-1-1.4-1.5-2.2c-0.3-0.6-0.4-1.1-0.4-1.7c0-0.8,0-1.6,0-2.4
	c0-0.3,0.2-0.6,0.3-0.8c0.1-0.1,0.2-0.2,0.2-0.3c0.4-0.9,0.9-1.6,1.6-2.2c0.3-0.3,0.7-0.5,1-0.8c0.3-0.2,0.3-0.4,0.3-0.7
	c0-1.9,0-3.8,0-5.8c0-1.7,0-3.4,0-5.1c0-0.2,0-0.3-0.3-0.4c-1.1,0-2.1-0.1-3.2-0.1c-0.2,0-0.5,0-0.7,0c-0.6,0-1-0.2-1-0.7
	c0-1,0-1.9,0-2.9c0-0.4,0.4-0.5,0.7-0.6c0.4,0,0.8-0.1,1.2,0c0.7,0.1,1.3,0.1,1.9,0c0.3-0.1,0.6-0.1,0.9-0.1c0.3,0,0.4-0.1,0.4-0.4
	c0-0.3,0-0.6,0-0.9c0-0.3-0.1-0.4-0.4-0.4c-1.1,0-2.3,0-3.4-0.1c-0.3,0-0.6-0.2-0.9-0.3c-0.1-0.1-0.2-0.3-0.2-0.4c0-1,0-1.9,0-2.9
	c0-0.5,0.2-0.6,0.7-0.6c1.2,0,2.5,0,3.7,0c0.4,0,0.5-0.1,0.5-0.4c0-0.5,0-0.9,0-1.5c-1.1,0.2-2.2,0.1-3.2,0c-0.2,0-0.5,0-0.7,0
	c-0.6,0.1-1.1-0.2-1.1-0.8c0-0.8,0-1.7,0-2.5c0-0.4,0.2-0.5,0.7-0.6c0.7,0,1.4,0,2.2,0c0.5,0,1.1,0,1.6,0c0.4,0,0.5-0.1,0.5-0.5
	c0-0.2,0-0.5,0-0.8c0-0.2,0.1-0.4,0.4-0.4c0.4,0,0.8,0,1.1,0c1.7,0,3.5,0,5.2,0c0.4,0,0.5,0.1,0.5,0.5c0,7,0,13.9,0,20.9
	c0,2.4,0,4.7,0,7.1c0,0.2,0,0.4,0,0.6c0.1,0.1,0.2,0.3,0.3,0.4c0.9,0.3,1.5,1.1,2.2,1.7c0.4,0.4,0.7,0.8,0.9,1.3
	c0.2,0.3,0.2,0.7,0.3,1.1c0,0.1,0,0.3,0.1,0.4C42.7,48.2,42.6,48.7,42.6,49.2z"/>
</svg>
