<?xml version="1.0" encoding="UTF-8"?>
<svg id="Layer_2" data-name="Layer 2" xmlns="http://www.w3.org/2000/svg" viewBox="0 0 151.39999 151.39999">
  <defs>
    <style>
      .cls-1 {
        fill: #fff;
      }

      .cls-2 {
        fill: #243e98;
      }
    </style>
  </defs>
  <circle class="cls-2" cx="75.7" cy="75.7" r="75.7"/>
  <g id="Layer_1-2" data-name="Layer 1-2">
    <circle class="cls-1" cx="75.7" cy="103.7" r="3.6"/>
    <path class="cls-1" d="m75.5,19.1l-49,28.3v56.6l49,28.3,49-28.3v-56.6l-49-28.3Zm.2,91.4c-6.2,0-11.3-4.8-11.3-10.8,0-4.2,2.5-7.8,6.1-9.6v-19.2h-8.2v-6.2h8.20001v-3.6h-8v-6.2h8v-3.5h-8v-6h8v-2.7h10.4v47.4c3.6,1.8,6.1,5.4,6.1,9.6,0,5.89999-5,10.8-11.3,10.8h0Z"/>
  </g>
</svg>