<?xml version="1.0" encoding="utf-8"?>
<!-- Generator: Adobe Illustrator 27.5.0, SVG Export Plug-In . SVG Version: 6.00 Build 0)  -->
<svg version="1.1" id="Layer_2_00000020388249338642934470000005897132922574211471_"
	 xmlns="http://www.w3.org/2000/svg" xmlns:xlink="http://www.w3.org/1999/xlink" x="0px" y="0px" viewBox="0 0 151.4 151.4"
	 style="enable-background:new 0 0 151.4 151.4;" xml:space="preserve">
<style type="text/css">
	.st0{fill:#FFFFFF;}
</style>
<g>
	<path class="st0" d="M75.7,5.9c38.6,0,69.8,31.3,69.8,69.8s-31.3,69.8-69.8,69.8S5.9,114.3,5.9,75.7S37.1,5.9,75.7,5.9 M75.7,0.7
		c-41.4,0-75,33.7-75,75s33.7,75,75,75s75-33.7,75-75S117.1,0.7,75.7,0.7L75.7,0.7z"/>
</g>
<g id="Layer_1-2">
	<circle class="st0" cx="75.7" cy="101.5" r="3.3"/>
	<path class="st0" d="M75.5,23.5L30.3,49.6v52.2l45.2,26.1l45.2-26.1V49.6L75.5,23.5z M75.7,107.8c-5.7,0-10.4-4.4-10.4-10
		c0-3.9,2.3-7.2,5.6-8.9V71.3h-7.6v-5.7h7.6v-3.3h-7.4v-5.7h7.4v-3.2h-7.4v-5.5h7.4v-2.5h9.6V89c3.3,1.7,5.6,5,5.6,8.9
		C86.1,103.3,81.5,107.8,75.7,107.8L75.7,107.8z"/>
</g>
</svg>
