<svg width="36" height="36" viewBox="0 0 36 36" fill="none" xmlns="http://www.w3.org/2000/svg">
<path d="M25.2 2.70005C25.2 2.46135 25.2948 2.23244 25.4636 2.06365C25.6324 1.89487 25.8613 1.80005 26.1 1.80005H33.3C33.5387 1.80005 33.7676 1.89487 33.9364 2.06365C34.1052 2.23244 34.2 2.46135 34.2 2.70005V11.7C34.2 11.9387 34.1052 12.1677 33.9364 12.3364C33.7676 12.5052 33.5387 12.6 33.3 12.6H30.6V33.3C30.6 33.5387 30.5052 33.7677 30.3364 33.9364C30.1676 34.1052 29.9387 34.2 29.7 34.2C29.4613 34.2 29.2324 34.1052 29.0636 33.9364C28.8948 33.7677 28.8 33.5387 28.8 33.3V12.6H26.1C25.8613 12.6 25.6324 12.5052 25.4636 12.3364C25.2948 12.1677 25.2 11.9387 25.2 11.7V2.70005ZM23.4 5.40005H11.052C10.0114 5.39984 9.00299 5.76024 8.19828 6.4199C7.39356 7.07955 6.84232 7.9977 6.63838 9.01805L6.28198 10.8H4.94998C4.59193 10.8 4.24856 10.9423 3.99538 11.1955C3.74221 11.4486 3.59998 11.792 3.59998 12.15C3.59998 12.5081 3.74221 12.8515 3.99538 13.1046C4.24856 13.3578 4.59193 13.5 4.94998 13.5H5.74198L5.54218 14.508C4.98168 14.6719 4.48943 15.0132 4.13926 15.4805C3.78908 15.9478 3.59986 16.5161 3.59998 17.1V24.3C3.59998 25.0161 3.88444 25.7029 4.39079 26.2092C4.89714 26.7156 5.58389 27 6.29998 27H27V14.4H7.39798L8.40418 9.37085C8.52647 8.759 8.8569 8.20839 9.33928 7.81264C9.82167 7.41689 10.4262 7.20043 11.0502 7.20005H23.4V5.40005ZM27 20.7C27 21.1774 26.8103 21.6353 26.4728 21.9728C26.1352 22.3104 25.6774 22.5 25.2 22.5C24.7226 22.5 24.2647 22.3104 23.9272 21.9728C23.5896 21.6353 23.4 21.1774 23.4 20.7C23.4 20.2227 23.5896 19.7648 23.9272 19.4273C24.2647 19.0897 24.7226 18.9 25.2 18.9C25.6774 18.9 26.1352 19.0897 26.4728 19.4273C26.8103 19.7648 27 20.2227 27 20.7ZM27 32.4C26.5226 32.4 26.0647 32.2104 25.7272 31.8728C25.3896 31.5353 25.2 31.0774 25.2 30.6V28.8H27V32.4ZM10.8 30.6V28.8H7.19998V30.6C7.19998 31.0774 7.38962 31.5353 7.72718 31.8728C8.06475 32.2104 8.52259 32.4 8.99998 32.4C9.47737 32.4 9.9352 32.2104 10.2728 31.8728C10.6103 31.5353 10.8 31.0774 10.8 30.6ZM8.99998 20.7C8.99998 20.2227 9.18962 19.7648 9.52718 19.4273C9.86475 19.0897 10.3226 18.9 10.8 18.9C11.2774 18.9 11.7352 19.0897 12.0728 19.4273C12.4103 19.7648 12.6 20.2227 12.6 20.7C12.6 21.1774 12.4103 21.6353 12.0728 21.9728C11.7352 22.3104 11.2774 22.5 10.8 22.5C10.3226 22.5 9.86475 22.3104 9.52718 21.9728C9.18962 21.6353 8.99998 21.1774 8.99998 20.7Z" fill="#1B31A4"/>
</svg>
