<?xml version="1.0" encoding="UTF-8"?>
<svg id="Layer_2" data-name="Layer 2" xmlns="http://www.w3.org/2000/svg" viewBox="0 0 150.48026 130.38001">
  <defs>
    <style>
      .cls-1 {
        fill: #1b31a4;
      }
    </style>
  </defs>
  <path class="cls-1" d="m89.22881,47.806c-1.76557-.67906-3.66694-1.0865-5.83994-1.0865h-18.33468v19.28538h18.33469c2.173,0,4.07438-.40744,5.83994-1.35813s3.12369-2.03719,4.21019-3.66694c1.0865-1.49394,1.62975-3.2595,1.62975-5.16087s-.54325-3.53112-1.62975-4.88925c-1.0865-1.35813-2.44463-2.44463-4.2102-3.12369Z"/>
  <path class="cls-1" d="m112.86019,0H37.62007L0,65.19l37.62007,65.19h75.24014l37.62006-65.19L112.86019,0Zm-1.90138,69.26438c-2.44463,4.07438-5.83994,7.19806-10.05013,9.64269-4.21019,2.44462-8.96362,3.53112-14.39612,3.53112h-21.18675v25.39693h-18.87794V29.87875h41.287c5.16088,0,9.7785,1.0865,13.71706,3.39531,4.07438,2.173,7.19807,5.29669,9.64269,9.09944,2.44462,3.80275,3.53112,8.14875,3.53112,13.038.00001,5.16087-1.2223,9.7785-3.66693,13.85287h0Z"/>
</svg>