<?xml version="1.0" encoding="utf-8"?>
<!-- Generator: Adobe Illustrator 27.5.0, SVG Export Plug-In . SVG Version: 6.00 Build 0)  -->
<svg version="1.1" id="Layer_1" xmlns="http://www.w3.org/2000/svg" xmlns:xlink="http://www.w3.org/1999/xlink" x="0px" y="0px"
	 viewBox="0 0 70 71" style="enable-background:new 0 0 70 71;" xml:space="preserve">
<style type="text/css">
	.st0{fill:#FAFBFB;}
</style>
<path class="st0" d="M44.5,10c6.8,0,13.2,2.7,18,7.5c4.8,4.8,7.5,11.2,7.5,18s-2.7,13.2-7.5,18c-4.8,4.8-11.2,7.5-18,7.5
	s-13.2-2.7-18-7.5c-4.8-4.8-7.5-11.2-7.5-18s2.7-13.2,7.5-18C31.3,12.7,37.8,10,44.5,10z M44.5,16.4c-5.1,0-9.9,2-13.5,5.6
	c-3.6,3.6-5.6,8.4-5.6,13.5s2,9.9,5.6,13.5c3.6,3.6,8.4,5.6,13.5,5.6s9.9-2,13.5-5.6c3.6-3.6,5.6-8.4,5.6-13.5s-2-9.9-5.6-13.5
	C54.5,18.4,49.6,16.4,44.5,16.4z M41.4,22.8h4.8v12l7.4,7.4l-3.4,3.4l-8.8-8.8V22.8z M3.2,54.6c-0.8,0-1.7-0.3-2.2-0.9
	C0.3,53.1,0,52.3,0,51.4c0-0.8,0.3-1.7,0.9-2.2c0.6-0.6,1.4-0.9,2.2-0.9h12.2c1,2.3,2.3,4.4,3.7,6.4H3.2z M6.4,38.7
	c-0.8,0-1.7-0.3-2.2-0.9c-0.6-0.6-0.9-1.4-0.9-2.2c0-0.8,0.3-1.7,0.9-2.2c0.6-0.6,1.4-0.9,2.2-0.9h6.5l-0.2,3.2l0.2,3.2H6.4z
	 M9.5,22.8c-0.8,0-1.7-0.3-2.2-0.9c-0.6-0.6-0.9-1.4-0.9-2.2c0-0.8,0.3-1.7,0.9-2.2c0.6-0.6,1.4-0.9,2.2-0.9h9.5
	c-1.5,2-2.7,4.1-3.7,6.4H9.5z"/>
</svg>
