<?xml version="1.0" encoding="utf-8"?>
<!-- Generator: Adobe Illustrator 27.5.0, SVG Export Plug-In . SVG Version: 6.00 Build 0)  -->
<svg version="1.1" id="Layer_1" xmlns="http://www.w3.org/2000/svg" xmlns:xlink="http://www.w3.org/1999/xlink" x="0px" y="0px"
	 viewBox="0 0 56 56" style="enable-background:new 0 0 56 56;" xml:space="preserve">
<style type="text/css">
	.st0{fill:#FAFBFB;}
</style>
<path class="st0" d="M28,6.3C16.4,6.3,6.2,15.6,6.2,28c0,5.1,1.8,9.8,4.8,13.6l-4.1,4.1c-0.5,0.5-0.7,1.1-0.7,1.7
	c0,0.6,0.3,1.3,0.7,1.7c0.5,0.5,1.1,0.7,1.7,0.7c0.6,0,1.3-0.3,1.7-0.7l4.1-4.1c3.9,3.1,8.6,4.8,13.6,4.8c5.6,0,11.2-2.1,15.4-6.4
	c2-2,3.6-4.4,4.7-7.1c1.1-2.6,1.7-5.5,1.7-8.3V11.1c0-2.7-2.2-4.8-4.8-4.8H28z M37.3,28.7L24.8,39.9c-0.4,0.4-1,0.3-1.4,0
	c-0.2-0.2-0.3-0.4-0.3-0.6c0-0.2,0-0.5,0.2-0.6l5.9-8.1l-9.8-1c-0.2,0-0.5-0.1-0.7-0.3c-0.2-0.1-0.3-0.3-0.4-0.6
	c-0.1-0.2-0.1-0.5,0-0.7s0.2-0.4,0.4-0.6l12.5-11.2c0.4-0.4,1-0.3,1.4,0c0.3,0.3,0.4,0.9,0.1,1.3l-5.9,8.1l9.8,1
	C37.6,26.6,38.1,28,37.3,28.7z"/>
</svg>
